<svg width="458" height="183" viewBox="0 0 458 183" fill="none" xmlns="http://www.w3.org/2000/svg">
<path d="M17.52 75.6L17.4266 75.7769L17.4282 75.7777L17.52 75.6ZM6.32 65.2L6.14812 65.3023L6.1496 65.3047L6.32 65.2ZM6.32 34.88L6.14904 34.7762L6.14868 34.7768L6.32 34.88ZM17.52 24.48L17.6118 24.6577L17.6134 24.6569L17.52 24.48ZM48.08 23.6L47.9979 23.7824L48.08 23.6ZM58.64 31.92L58.7732 32.0692L58.9115 31.9458L58.7989 31.7985L58.64 31.92ZM46.72 42.56L46.5633 42.6842L46.695 42.8504L46.8532 42.7092L46.72 42.56ZM24.96 39.84L25.1045 39.9783L25.1059 39.9768L24.96 39.84ZM24.96 60.24L24.8141 60.3768L24.8155 60.3783L24.96 60.24ZM46.72 57.44L46.8532 57.2908L46.695 57.1496L46.5633 57.3158L46.72 57.44ZM58.64 68.08L58.7989 68.2015L58.9115 68.0542L58.7732 67.9308L58.64 68.08ZM48.08 76.4L47.9979 76.2176L48.08 76.4ZM33.52 79.08C27.6285 79.08 22.3272 77.8595 17.6118 75.4223L17.4282 75.7777C22.2062 78.2472 27.5716 79.48 33.52 79.48V79.08ZM17.6134 75.4231C12.8973 72.9326 9.19102 69.4904 6.4904 65.0953L6.1496 65.3047C8.88899 69.7629 12.6494 73.254 17.4266 75.7769L17.6134 75.4231ZM6.49186 65.0977C3.84515 60.6512 2.52 55.6205 2.52 50H2.12C2.12 55.6862 3.46151 60.7888 6.14814 65.3023L6.49186 65.0977ZM2.52 50C2.52 44.3795 3.84516 39.3758 6.49132 34.9832L6.14868 34.7768C3.46151 39.2375 2.12 44.3138 2.12 50H2.52ZM6.49096 34.9838C9.19149 30.5359 12.8972 27.0945 17.6118 24.6577L17.4282 24.3023C12.6495 26.7722 8.88851 30.2641 6.14904 34.7762L6.49096 34.9838ZM17.6134 24.6569C22.3284 22.1669 27.6291 20.92 33.52 20.92V20.52C27.5709 20.52 22.2049 21.7798 17.4266 24.3031L17.6134 24.6569ZM33.52 20.92C38.9363 20.92 43.7609 21.8757 47.9979 23.7824L48.1621 23.4176C43.8657 21.4843 38.9837 20.52 33.52 20.52V20.92ZM47.9979 23.7824C52.2351 25.6891 55.7285 28.4418 58.4811 32.0415L58.7989 31.7985C56.0049 28.1448 52.4582 25.3509 48.1621 23.4176L47.9979 23.7824ZM58.5068 31.7708L46.5868 42.4108L46.8532 42.7092L58.7732 32.0692L58.5068 31.7708ZM46.8767 42.4358C43.3801 38.0247 39.2462 35.8 34.48 35.8V36.2C39.1004 36.2 43.1265 38.3487 46.5633 42.6842L46.8767 42.4358ZM34.48 35.8C30.4857 35.8 27.2568 37.0976 24.8141 39.7032L25.1059 39.9768C27.4632 37.4623 30.581 36.2 34.48 36.2V35.8ZM24.8155 39.7017C22.3721 42.2537 21.16 45.6943 21.16 50H21.56C21.56 45.7724 22.7479 42.4396 25.1045 39.9783L24.8155 39.7017ZM21.16 50C21.16 54.3059 22.3722 57.7721 24.8141 60.3768L25.1059 60.1032C22.7478 57.5879 21.56 54.2274 21.56 50H21.16ZM24.8155 60.3783C27.2586 62.9299 30.487 64.2 34.48 64.2V63.8C30.5797 63.8 27.4614 62.5634 25.1045 60.1017L24.8155 60.3783ZM34.48 64.2C39.2462 64.2 43.3801 61.9753 46.8767 57.5642L46.5633 57.3158C43.1265 61.6513 39.1004 63.8 34.48 63.8V64.2ZM46.5868 57.5892L58.5068 68.2292L58.7732 67.9308L46.8532 57.2908L46.5868 57.5892ZM58.4811 67.9585C55.7285 71.5582 52.2351 74.3109 47.9979 76.2176L48.1621 76.5824C52.4582 74.6491 56.0049 71.8552 58.7989 68.2015L58.4811 67.9585ZM47.9979 76.2176C43.7609 78.1243 38.9363 79.08 33.52 79.08V79.48C38.9837 79.48 43.8657 78.5157 48.1621 76.5824L47.9979 76.2176ZM101.47 68.24L101.657 68.1681L101.607 68.04H101.47V68.24ZM80.19 68.24V68.04H80.0527L80.0034 68.1681L80.19 68.24ZM76.43 78V78.2H76.5673L76.6166 78.0719L76.43 78ZM57.23 78L57.0467 77.9199L56.9243 78.2H57.23V78ZM81.71 22V21.8H81.5792L81.5267 21.9199L81.71 22ZM100.27 22L100.453 21.9199L100.401 21.8H100.27V22ZM124.75 78V78.2H125.056L124.933 77.9199L124.75 78ZM105.23 78L105.043 78.0719L105.093 78.2H105.23V78ZM96.27 54.64V54.84H96.5617L96.4566 54.5679L96.27 54.64ZM90.83 40.56L91.0166 40.4879L90.83 40.0051L90.6434 40.4879L90.83 40.56ZM85.39 54.64L85.2034 54.5679L85.0983 54.84H85.39V54.64ZM101.47 68.04H80.19V68.44H101.47V68.04ZM80.0034 68.1681L76.2434 77.9281L76.6166 78.0719L80.3766 68.3119L80.0034 68.1681ZM76.43 77.8H57.23V78.2H76.43V77.8ZM57.4133 78.0801L81.8933 22.0801L81.5267 21.9199L57.0467 77.9199L57.4133 78.0801ZM81.71 22.2H100.27V21.8H81.71V22.2ZM100.087 22.0801L124.567 78.0801L124.933 77.9199L100.453 21.9199L100.087 22.0801ZM124.75 77.8H105.23V78.2H124.75V77.8ZM105.417 77.9281L101.657 68.1681L101.283 68.3119L105.043 78.0719L105.417 77.9281ZM96.4566 54.5679L91.0166 40.4879L90.6434 40.6321L96.0834 54.7121L96.4566 54.5679ZM90.6434 40.4879L85.2034 54.5679L85.5766 54.7121L91.0166 40.6321L90.6434 40.4879ZM85.39 54.84H96.27V54.44H85.39V54.84ZM177.763 78L177.563 78.0013L177.564 78.2H177.763V78ZM177.603 52.48L177.803 52.4787L177.799 51.759L177.431 52.3779L177.603 52.48ZM165.443 72.96V73.16H165.557L165.615 73.0621L165.443 72.96ZM157.123 72.96L156.953 73.0654L157.012 73.16H157.123V72.96ZM144.963 53.36L145.133 53.2546L144.763 52.6583V53.36H144.963ZM144.963 78V78.2H145.163V78H144.963ZM127.763 78H127.563V78.2H127.763V78ZM127.763 22V21.8H127.563V22H127.763ZM143.283 22L143.454 21.8957L143.395 21.8H143.283V22ZM161.523 51.84L161.352 51.9443L161.525 52.2272L161.695 51.9423L161.523 51.84ZM179.283 22V21.8H179.169L179.111 21.8977L179.283 22ZM194.803 22L195.003 21.9994L195.003 21.8H194.803V22ZM194.963 78V78.2H195.164L195.163 77.9994L194.963 78ZM177.963 77.9987L177.803 52.4787L177.403 52.4813L177.563 78.0013L177.963 77.9987ZM177.431 52.3779L165.271 72.8579L165.615 73.0621L177.775 52.5821L177.431 52.3779ZM165.443 72.76H157.123V73.16H165.443V72.76ZM157.293 72.8546L145.133 53.2546L144.793 53.4654L156.953 73.0654L157.293 72.8546ZM144.763 53.36V78H145.163V53.36H144.763ZM144.963 77.8H127.763V78.2H144.963V77.8ZM127.963 78V22H127.563V78H127.963ZM127.763 22.2H143.283V21.8H127.763V22.2ZM143.112 22.1043L161.352 51.9443L161.694 51.7357L143.454 21.8957L143.112 22.1043ZM161.695 51.9423L179.455 22.1023L179.111 21.8977L161.351 51.7377L161.695 51.9423ZM179.283 22.2H194.803V21.8H179.283V22.2ZM194.603 22.0006L194.763 78.0006L195.163 77.9994L195.003 21.9994L194.603 22.0006ZM194.963 77.8H177.763V78.2H194.963V77.8ZM204.091 22V21.8H203.891V22H204.091ZM222.971 22H223.171V21.8H222.971V22ZM222.971 78V78.2H223.171V78H222.971ZM204.091 78H203.891V78.2H204.091V78ZM204.091 22.2H222.971V21.8H204.091V22.2ZM222.771 22V78H223.171V22H222.771ZM222.971 77.8H204.091V78.2H222.971V77.8ZM204.291 78V22H203.891V78H204.291ZM232.06 22V21.8H231.86V22H232.06ZM250.94 22H251.14V21.8H250.94V22ZM250.94 63.36H250.74V63.56H250.94V63.36ZM276.22 63.36H276.42V63.16H276.22V63.36ZM276.22 78V78.2H276.42V78H276.22ZM232.06 78H231.86V78.2H232.06V78ZM232.06 22.2H250.94V21.8H232.06V22.2ZM250.74 22V63.36H251.14V22H250.74ZM250.94 63.56H276.22V63.16H250.94V63.56ZM276.02 63.36V78H276.42V63.36H276.02ZM276.22 77.8H232.06V78.2H276.22V77.8ZM232.26 78V22H231.86V78H232.26ZM320.376 68.24L320.563 68.1681L320.514 68.04H320.376V68.24ZM299.096 68.24V68.04H298.959L298.91 68.1681L299.096 68.24ZM295.336 78V78.2H295.474L295.523 78.0719L295.336 78ZM276.136 78L275.953 77.9199L275.831 78.2H276.136V78ZM300.616 22V21.8H300.485L300.433 21.9199L300.616 22ZM319.176 22L319.359 21.9199L319.307 21.8H319.176V22ZM343.656 78V78.2H343.962L343.84 77.9199L343.656 78ZM324.136 78L323.95 78.0719L323.999 78.2H324.136V78ZM315.176 54.64V54.84H315.468L315.363 54.5679L315.176 54.64ZM309.736 40.56L309.923 40.4879L309.736 40.0051L309.55 40.4879L309.736 40.56ZM304.296 54.64L304.11 54.5679L304.005 54.84H304.296V54.64ZM320.376 68.04H299.096V68.44H320.376V68.04ZM298.91 68.1681L295.15 77.9281L295.523 78.0719L299.283 68.3119L298.91 68.1681ZM295.336 77.8H276.136V78.2H295.336V77.8ZM276.32 78.0801L300.799 22.0801L300.433 21.9199L275.953 77.9199L276.32 78.0801ZM300.616 22.2H319.176V21.8H300.616V22.2ZM318.993 22.0801L343.473 78.0801L343.84 77.9199L319.359 21.9199L318.993 22.0801ZM343.656 77.8H324.136V78.2H343.656V77.8ZM324.323 77.9281L320.563 68.1681L320.19 68.3119L323.95 78.0719L324.323 77.9281ZM315.363 54.5679L309.923 40.4879L309.55 40.6321L314.99 54.7121L315.363 54.5679ZM309.55 40.4879L304.11 54.5679L304.483 54.7121L309.923 40.6321L309.55 40.4879ZM304.296 54.84H315.176V54.44H304.296V54.84Z" fill="#FD4C05" fill-opacity="0.5"/>
<path d="M70.52 160.6L70.4266 160.777L70.4282 160.778L70.52 160.6ZM59.32 150.2L59.1481 150.302L59.1496 150.305L59.32 150.2ZM59.32 119.88L59.149 119.776L59.1487 119.777L59.32 119.88ZM70.52 109.48L70.6118 109.658L70.6134 109.657L70.52 109.48ZM101.08 108.6L100.998 108.782L101.08 108.6ZM111.64 116.92L111.773 117.069L111.911 116.946L111.799 116.799L111.64 116.92ZM99.72 127.56L99.5633 127.684L99.695 127.85L99.8532 127.709L99.72 127.56ZM77.96 124.84L78.1045 124.978L78.1059 124.977L77.96 124.84ZM77.96 145.24L77.8141 145.377L77.8155 145.378L77.96 145.24ZM99.72 142.44L99.8532 142.291L99.695 142.15L99.5633 142.316L99.72 142.44ZM111.64 153.08L111.799 153.201L111.911 153.054L111.773 152.931L111.64 153.08ZM101.08 161.4L100.998 161.218L101.08 161.4ZM86.52 164.08C80.6285 164.08 75.3272 162.859 70.6118 160.422L70.4282 160.778C75.2062 163.247 80.5716 164.48 86.52 164.48V164.08ZM70.6134 160.423C65.8973 157.933 62.191 154.49 59.4904 150.095L59.1496 150.305C61.889 154.763 65.6494 158.254 70.4266 160.777L70.6134 160.423ZM59.4919 150.098C56.8452 145.651 55.52 140.62 55.52 135H55.12C55.12 140.686 56.4615 145.789 59.1481 150.302L59.4919 150.098ZM55.52 135C55.52 129.38 56.8452 124.376 59.4913 119.983L59.1487 119.777C56.4615 124.238 55.12 129.314 55.12 135H55.52ZM59.491 119.984C62.1915 115.536 65.8972 112.094 70.6118 109.658L70.4282 109.302C65.6495 111.772 61.8885 115.264 59.149 119.776L59.491 119.984ZM70.6134 109.657C75.3284 107.167 80.6291 105.92 86.52 105.92V105.52C80.5709 105.52 75.2049 106.78 70.4266 109.303L70.6134 109.657ZM86.52 105.92C91.9363 105.92 96.7609 106.876 100.998 108.782L101.162 108.418C96.8657 106.484 91.9837 105.52 86.52 105.52V105.92ZM100.998 108.782C105.235 110.689 108.728 113.442 111.481 117.041L111.799 116.799C109.005 113.145 105.458 110.351 101.162 108.418L100.998 108.782ZM111.507 116.771L99.5868 127.411L99.8532 127.709L111.773 117.069L111.507 116.771ZM99.8767 127.436C96.3801 123.025 92.2462 120.8 87.48 120.8V121.2C92.1004 121.2 96.1265 123.349 99.5633 127.684L99.8767 127.436ZM87.48 120.8C83.4857 120.8 80.2568 122.098 77.8141 124.703L78.1059 124.977C80.4632 122.462 83.581 121.2 87.48 121.2V120.8ZM77.8155 124.702C75.3721 127.254 74.16 130.694 74.16 135H74.56C74.56 130.772 75.7479 127.44 78.1045 124.978L77.8155 124.702ZM74.16 135C74.16 139.306 75.3722 142.772 77.8141 145.377L78.1059 145.103C75.7478 142.588 74.56 139.227 74.56 135H74.16ZM77.8155 145.378C80.2586 147.93 83.487 149.2 87.48 149.2V148.8C83.5797 148.8 80.4614 147.563 78.1045 145.102L77.8155 145.378ZM87.48 149.2C92.2462 149.2 96.3801 146.975 99.8767 142.564L99.5633 142.316C96.1265 146.651 92.1004 148.8 87.48 148.8V149.2ZM99.5868 142.589L111.507 153.229L111.773 152.931L99.8532 142.291L99.5868 142.589ZM111.481 152.959C108.728 156.558 105.235 159.311 100.998 161.218L101.162 161.582C105.458 159.649 109.005 156.855 111.799 153.201L111.481 152.959ZM100.998 161.218C96.7609 163.124 91.9363 164.08 86.52 164.08V164.48C91.9837 164.48 96.8657 163.516 101.162 161.582L100.998 161.218ZM154.47 153.24L154.657 153.168L154.607 153.04H154.47V153.24ZM133.19 153.24V153.04H133.053L133.003 153.168L133.19 153.24ZM129.43 163V163.2H129.567L129.617 163.072L129.43 163ZM110.23 163L110.047 162.92L109.924 163.2H110.23V163ZM134.71 107V106.8H134.579L134.527 106.92L134.71 107ZM153.27 107L153.453 106.92L153.401 106.8H153.27V107ZM177.75 163V163.2H178.056L177.933 162.92L177.75 163ZM158.23 163L158.043 163.072L158.093 163.2H158.23V163ZM149.27 139.64V139.84H149.562L149.457 139.568L149.27 139.64ZM143.83 125.56L144.017 125.488L143.83 125.005L143.643 125.488L143.83 125.56ZM138.39 139.64L138.203 139.568L138.098 139.84H138.39V139.64ZM154.47 153.04H133.19V153.44H154.47V153.04ZM133.003 153.168L129.243 162.928L129.617 163.072L133.377 153.312L133.003 153.168ZM129.43 162.8H110.23V163.2H129.43V162.8ZM110.413 163.08L134.893 107.08L134.527 106.92L110.047 162.92L110.413 163.08ZM134.71 107.2H153.27V106.8H134.71V107.2ZM153.087 107.08L177.567 163.08L177.933 162.92L153.453 106.92L153.087 107.08ZM177.75 162.8H158.23V163.2H177.75V162.8ZM158.417 162.928L154.657 153.168L154.283 153.312L158.043 163.072L158.417 162.928ZM149.457 139.568L144.017 125.488L143.643 125.632L149.083 139.712L149.457 139.568ZM143.643 125.488L138.203 139.568L138.577 139.712L144.017 125.632L143.643 125.488ZM138.39 139.84H149.27V139.44H138.39V139.84ZM225.563 133.72L225.474 133.541L225.061 133.747L225.494 133.908L225.563 133.72ZM233.243 139.08L233.401 138.958L233.243 139.08ZM229.883 159L229.993 159.167L229.995 159.166L229.883 159ZM180.763 163H180.563V163.2H180.763V163ZM180.763 107V106.8H180.563V107H180.763ZM227.563 111L227.448 111.164L227.449 111.164L227.563 111ZM231.323 128.68L231.155 128.572L231.153 128.575L231.323 128.68ZM199.323 120.2V120H199.123V120.2H199.323ZM199.323 128.52H199.123V128.72H199.323V128.52ZM199.323 141V140.8H199.123V141H199.323ZM199.323 149.8H199.123V150H199.323V149.8ZM225.494 133.908C228.772 135.124 231.298 136.89 233.085 139.202L233.401 138.958C231.561 136.576 228.968 134.77 225.633 133.532L225.494 133.908ZM233.085 139.202C234.868 141.51 235.763 144.292 235.763 147.56H236.163C236.163 144.214 235.245 141.343 233.401 138.958L233.085 139.202ZM235.763 147.56C235.763 152.4 233.769 156.151 229.772 158.834L229.995 159.166C234.104 156.409 236.163 152.533 236.163 147.56H235.763ZM229.773 158.833C225.766 161.469 219.945 162.8 212.283 162.8V163.2C219.981 163.2 225.893 161.864 229.993 159.167L229.773 158.833ZM212.283 162.8H180.763V163.2H212.283V162.8ZM180.963 163V107H180.563V163H180.963ZM180.763 107.2H210.683V106.8H180.763V107.2ZM210.683 107.2C218.132 107.2 223.71 108.531 227.448 111.164L227.678 110.836C223.843 108.136 218.168 106.8 210.683 106.8V107.2ZM227.449 111.164C231.239 113.796 233.123 117.283 233.123 121.64H233.523C233.523 117.144 231.567 113.537 227.677 110.836L227.449 111.164ZM233.123 121.64C233.123 124.217 232.466 126.526 231.155 128.572L231.492 128.788C232.847 126.674 233.523 124.289 233.523 121.64H233.123ZM231.153 128.575C229.895 130.618 228.006 132.275 225.474 133.541L225.653 133.899C228.24 132.605 230.191 130.902 231.493 128.785L231.153 128.575ZM199.123 120.2V128.52H199.523V120.2H199.123ZM199.323 128.72H208.123V128.32H199.323V128.72ZM208.123 128.72C210.193 128.72 211.78 128.372 212.855 127.646C213.944 126.91 214.483 125.804 214.483 124.36H214.083C214.083 125.69 213.596 126.663 212.631 127.314C211.653 127.975 210.16 128.32 208.123 128.32V128.72ZM214.483 124.36C214.483 122.916 213.944 121.81 212.855 121.074C211.78 120.348 210.193 120 208.123 120V120.4C210.16 120.4 211.653 120.745 212.631 121.406C213.596 122.057 214.083 123.03 214.083 124.36H214.483ZM208.123 120H199.323V120.4H208.123V120ZM210.683 150C212.781 150 214.389 149.631 215.478 148.863C216.58 148.087 217.123 146.92 217.123 145.4H216.723C216.723 146.813 216.226 147.847 215.248 148.537C214.257 149.235 212.746 149.6 210.683 149.6V150ZM217.123 145.4C217.123 143.88 216.58 142.713 215.478 141.937C214.389 141.169 212.781 140.8 210.683 140.8V141.2C212.746 141.2 214.257 141.565 215.248 142.263C216.226 142.953 216.723 143.987 216.723 145.4H217.123ZM210.683 140.8H199.323V141.2H210.683V140.8ZM199.123 141V149.8H199.523V141H199.123ZM199.323 150H210.683V149.6H199.323V150ZM289.198 148.76H289.398V148.56H289.198V148.76ZM289.198 163V163.2H289.398V163H289.198ZM242.638 163H242.438V163.2H242.638V163ZM242.638 107V106.8H242.438V107H242.638ZM288.158 107H288.358V106.8H288.158V107ZM288.158 121.24V121.44H288.358V121.24H288.158ZM261.198 121.24V121.04H260.998V121.24H261.198ZM261.198 127.8H260.998V128H261.198V127.8ZM284.878 127.8H285.078V127.6H284.878V127.8ZM284.878 141.4V141.6H285.078V141.4H284.878ZM261.198 141.4V141.2H260.998V141.4H261.198ZM261.198 148.76H260.998V148.96H261.198V148.76ZM288.998 148.76V163H289.398V148.76H288.998ZM289.198 162.8H242.638V163.2H289.198V162.8ZM242.838 163V107H242.438V163H242.838ZM242.638 107.2H288.158V106.8H242.638V107.2ZM287.958 107V121.24H288.358V107H287.958ZM288.158 121.04H261.198V121.44H288.158V121.04ZM260.998 121.24V127.8H261.398V121.24H260.998ZM261.198 128H284.878V127.6H261.198V128ZM284.678 127.8V141.4H285.078V127.8H284.678ZM284.878 141.2H261.198V141.6H284.878V141.2ZM260.998 141.4V148.76H261.398V141.4H260.998ZM261.198 148.96H289.198V148.56H261.198V148.96ZM296.466 107V106.8H296.266V107H296.466ZM315.346 107H315.546V106.8H315.346V107ZM315.346 148.36H315.146V148.56H315.346V148.36ZM340.626 148.36H340.826V148.16H340.626V148.36ZM340.626 163V163.2H340.826V163H340.626ZM296.466 163H296.266V163.2H296.466V163ZM296.466 107.2H315.346V106.8H296.466V107.2ZM315.146 107V148.36H315.546V107H315.146ZM315.346 148.56H340.626V148.16H315.346V148.56ZM340.426 148.36V163H340.826V148.36H340.426ZM340.626 162.8H296.466V163.2H340.626V162.8ZM296.666 163V107H296.266V163H296.666ZM345.841 107V106.8H345.641V107H345.841ZM364.721 107H364.921V106.8H364.721V107ZM364.721 148.36H364.521V148.56H364.721V148.36ZM390.001 148.36H390.201V148.16H390.001V148.36ZM390.001 163V163.2H390.201V163H390.001ZM345.841 163H345.641V163.2H345.841V163ZM345.841 107.2H364.721V106.8H345.841V107.2ZM364.521 107V148.36H364.921V107H364.521ZM364.721 148.56H390.001V148.16H364.721V148.56ZM389.801 148.36V163H390.201V148.36H389.801ZM390.001 162.8H345.841V163.2H390.001V162.8ZM346.041 163V107H345.641V163H346.041ZM407.555 160.52L407.648 160.343L407.555 160.52ZM396.275 150.12L396.104 150.224L396.105 150.225L396.275 150.12ZM396.275 119.96L396.445 120.065L396.446 120.064L396.275 119.96ZM440.035 109.48L440.128 109.303L440.035 109.48ZM451.315 119.96L451.144 120.064L451.145 120.065L451.315 119.96ZM451.315 150.12L451.485 150.225L451.486 150.224L451.315 150.12ZM440.035 160.52L440.128 160.697L440.035 160.52ZM430.115 147.32L430.218 147.492L430.219 147.491L430.115 147.32ZM434.675 142.44L434.851 142.535L434.852 142.533L434.675 142.44ZM434.675 127.64L434.498 127.733L434.499 127.735L434.675 127.64ZM430.115 122.76L430.009 122.929L430.014 122.933L430.115 122.76ZM417.395 122.76L417.498 122.932L417.499 122.931L417.395 122.76ZM412.915 127.64L413.091 127.735L413.092 127.733L412.915 127.64ZM412.915 142.44L412.738 142.533L412.739 142.535L412.915 142.44ZM417.395 147.32L417.289 147.489L417.294 147.493L417.395 147.32ZM423.795 164.08C417.797 164.08 412.416 162.833 407.648 160.343L407.462 160.697C412.294 163.22 417.74 164.48 423.795 164.48V164.08ZM407.648 160.343C402.878 157.852 399.146 154.41 396.445 150.015L396.105 150.225C398.844 154.683 402.632 158.175 407.462 160.697L407.648 160.343ZM396.446 150.016C393.746 145.57 392.395 140.566 392.395 135H391.995C391.995 140.634 393.364 145.71 396.104 150.224L396.446 150.016ZM392.395 135C392.395 129.434 393.746 124.457 396.445 120.065L396.105 119.855C393.364 124.316 391.995 129.366 391.995 135H392.395ZM396.446 120.064C399.146 115.616 402.879 112.148 407.648 109.657L407.462 109.303C402.631 111.826 398.844 115.344 396.104 119.856L396.446 120.064ZM407.648 109.657C412.416 107.167 417.797 105.92 423.795 105.92V105.52C417.74 105.52 412.294 106.78 407.462 109.303L407.648 109.657ZM423.795 105.92C429.793 105.92 435.174 107.167 439.942 109.657L440.128 109.303C435.296 106.78 429.85 105.52 423.795 105.52V105.92ZM439.942 109.657C444.711 112.148 448.444 115.616 451.144 120.064L451.486 119.856C448.746 115.344 444.959 111.826 440.128 109.303L439.942 109.657ZM451.145 120.065C453.844 124.457 455.195 129.434 455.195 135H455.595C455.595 129.366 454.226 124.316 451.485 119.855L451.145 120.065ZM455.195 135C455.195 140.566 453.844 145.57 451.144 150.016L451.486 150.224C454.226 145.71 455.595 140.634 455.595 135H455.195ZM451.145 150.015C448.444 154.41 444.712 157.852 439.942 160.343L440.128 160.697C444.958 158.175 448.746 154.683 451.485 150.225L451.145 150.015ZM439.942 160.343C435.174 162.833 429.793 164.08 423.795 164.08V164.48C429.85 164.48 435.296 163.22 440.128 160.697L439.942 160.343ZM423.795 149.2C426.175 149.2 428.318 148.632 430.218 147.491L430.012 147.149C428.179 148.248 426.108 148.8 423.795 148.8V149.2ZM430.219 147.491C432.171 146.298 433.715 144.644 434.851 142.535L434.499 142.345C433.395 144.396 431.899 145.995 430.011 147.149L430.219 147.491ZM434.852 142.533C435.99 140.366 436.555 137.853 436.555 135H436.155C436.155 137.8 435.6 140.247 434.498 142.347L434.852 142.533ZM436.555 135C436.555 132.147 435.99 129.66 434.851 127.545L434.499 127.735C435.6 129.78 436.155 132.2 436.155 135H436.555ZM434.852 127.547C433.716 125.383 432.171 123.728 430.216 122.587L430.014 122.933C431.899 124.032 433.394 125.63 434.498 127.733L434.852 127.547ZM430.221 122.591C428.321 121.396 426.177 120.8 423.795 120.8V121.2C426.107 121.2 428.176 121.777 430.009 122.929L430.221 122.591ZM423.795 120.8C421.413 120.8 419.243 121.396 417.291 122.589L417.499 122.931C419.387 121.777 421.483 121.2 423.795 121.2V120.8ZM417.292 122.589C415.391 123.729 413.873 125.385 412.738 127.547L413.092 127.733C414.197 125.629 415.666 124.031 417.498 122.931L417.292 122.589ZM412.739 127.545C411.6 129.66 411.035 132.147 411.035 135H411.435C411.435 132.2 411.99 129.78 413.091 127.735L412.739 127.545ZM411.035 135C411.035 137.853 411.6 140.366 412.738 142.533L413.092 142.347C411.99 140.247 411.435 137.8 411.435 135H411.035ZM412.739 142.535C413.874 144.643 415.391 146.296 417.289 147.489L417.501 147.151C415.666 145.997 414.196 144.397 413.091 142.345L412.739 142.535ZM417.294 147.493C419.247 148.632 421.415 149.2 423.795 149.2V148.8C421.482 148.8 419.383 148.248 417.496 147.147L417.294 147.493Z" fill="#FD4C05" fill-opacity="0.5"/>
</svg>
