<svg width="16" height="16" viewBox="0 0 16 16" fill="none" xmlns="http://www.w3.org/2000/svg">
<path d="M7.43755 0.0187464C7.37817 0.0249968 7.1938 0.0468721 7.0313 0.0656214C5.60317 0.224997 4.10005 0.865622 2.95317 1.79687C2.59692 2.08437 2.03442 2.65312 1.75317 3.00625C1.03755 3.90312 0.450049 5.11562 0.206299 6.20312C0.0531738 6.88437 0.0187988 7.21875 0.0187988 8C0.0187988 8.78125 0.0531738 9.11562 0.206299 9.79687C0.453174 10.9062 1.0563 12.1375 1.79692 13.0469C2.08442 13.4031 2.65317 13.9656 3.0063 14.2469C3.90317 14.9625 5.11567 15.55 6.20317 15.7937C6.8563 15.9406 7.24692 15.9812 8.00005 15.9812C9.32817 15.9812 10.3469 15.7469 11.5157 15.1719C12.8188 14.5344 13.8594 13.6219 14.6719 12.4062C15.15 11.6937 15.6094 10.6281 15.7938 9.79687C15.9469 9.11562 15.9813 8.78125 15.9813 8C15.9813 7.21875 15.9469 6.88437 15.7938 6.20312C15.5469 5.09375 14.9438 3.8625 14.2032 2.95312C13.9157 2.59687 13.3469 2.03437 12.9938 1.75312C11.9063 0.884372 10.5657 0.299996 9.1813 0.0906219C8.78755 0.0312471 7.70942 -0.0125036 7.43755 0.0187464ZM7.89067 4.25312C9.80317 4.38437 11.6938 4.87812 13.025 5.6C13.5688 5.89375 13.7094 6.09062 13.6813 6.51875C13.6563 6.90312 13.3813 7.17812 12.9938 7.20937C12.7969 7.225 12.7907 7.225 12.375 7.00625C11.875 6.74687 11.5375 6.60312 10.9844 6.41562C8.76255 5.66562 5.77192 5.54375 3.56255 6.11562C3.06255 6.24375 2.88442 6.24062 2.65942 6.10312C2.2688 5.85937 2.1938 5.27812 2.5063 4.92187C2.64692 4.7625 2.7813 4.70625 3.3438 4.56875C4.6688 4.24375 6.20942 4.1375 7.89067 4.25312ZM7.54692 7.00312C8.59692 7.08437 9.69692 7.32812 10.6719 7.69375C11.1344 7.86875 12.0719 8.325 12.2844 8.48125C12.5469 8.675 12.6375 9.03437 12.5032 9.33125C12.4125 9.52812 12.1625 9.6875 11.9375 9.6875C11.8907 9.6875 11.5782 9.55 11.2469 9.38125C9.72505 8.6125 8.27817 8.275 6.50005 8.27187C5.55005 8.27187 4.79692 8.35937 3.98442 8.56875C3.77817 8.62187 3.57192 8.67187 3.52817 8.67812C3.30005 8.71875 2.98442 8.51562 2.88755 8.2625C2.7813 7.9875 2.90317 7.6125 3.14692 7.47812C3.36255 7.35625 4.34067 7.13125 5.0938 7.02812C5.70317 6.94687 6.69067 6.9375 7.54692 7.00312ZM7.42817 9.59687C8.79067 9.70625 10.0125 10.0656 11.0719 10.6656C11.475 10.8937 11.5625 11.0031 11.5625 11.2875C11.5625 11.5812 11.3625 11.7875 11.0782 11.7875C10.9688 11.7875 10.8782 11.7531 10.6719 11.6406C9.39067 10.9437 8.35005 10.6687 6.84067 10.6344C5.84692 10.6094 5.21255 10.6687 4.15942 10.8781C3.61567 10.9844 3.5188 10.9812 3.36255 10.8437C3.22192 10.7187 3.17817 10.6 3.1938 10.3906C3.22192 10.0625 3.35005 9.96875 3.95942 9.84375C5.13442 9.60312 6.40317 9.5125 7.42817 9.59687Z" fill="white"/>
</svg>
