<svg width="16" height="16" viewBox="0 0 16 16" fill="none" xmlns="http://www.w3.org/2000/svg">
<path d="M9.3125 0.0437498C8.4125 0.184375 7.78125 0.490624 7.2625 1.0375C6.825 1.5 6.55313 2.04062 6.4 2.75C6.34063 3.01875 6.33438 3.18125 6.32188 4.44375L6.30938 5.84375H5.075H3.84375V7.26562V8.6875L5.07187 8.69375L6.29688 8.70312L6.30625 12.35L6.3125 16H7.78125H9.25V12.3438V8.6875H10.4688C11.1406 8.6875 11.6875 8.68437 11.6875 8.67812C11.7719 8.10938 12.05 5.88437 12.0406 5.86562C12.0344 5.85312 11.4031 5.84375 10.6375 5.84375H9.24688L9.25625 4.67812C9.26562 3.54062 9.26875 3.5125 9.34063 3.33125C9.4875 2.96562 9.79375 2.74687 10.2562 2.6875C10.3812 2.67188 10.8594 2.65625 11.3219 2.65625H12.1562L12.15 1.38125L12.1406 0.109375L11.7344 0.0718746C11.0687 0.0124998 9.625 -0.00625038 9.3125 0.0437498Z" fill="white"/>
</svg>
