<svg width="16" height="16" viewBox="0 0 16 16" fill="none" xmlns="http://www.w3.org/2000/svg">
<g clip-path="url(#clip0_422_183)">
<path d="M3.43755 0.0468731C2.54068 0.181248 1.8313 0.537498 1.18442 1.18437C0.518799 1.85 0.156299 2.59375 0.0344239 3.52812C-0.0124512 3.89375 -0.0124512 12.1062 0.0344239 12.4719C0.156299 13.4062 0.518799 14.15 1.18442 14.8156C1.85005 15.4812 2.5938 15.8437 3.52818 15.9656C3.8938 16.0125 12.1063 16.0125 12.4719 15.9656C13.4063 15.8437 14.1501 15.4812 14.8157 14.8156C15.4813 14.15 15.8438 13.4062 15.9657 12.4719C16.0126 12.1062 16.0126 3.89375 15.9657 3.52812C15.8438 2.59375 15.4813 1.85 14.8157 1.18437C14.1501 0.518748 13.4063 0.156248 12.4719 0.0343733C12.0719 -0.0187511 3.79068 -0.00625229 3.43755 0.0468731ZM12.8032 1.45937C13.1563 1.58125 13.2344 1.62187 13.5251 1.82187C13.9876 2.14062 14.3532 2.6375 14.5376 3.19687L14.6407 3.51562V8C14.6407 12.2906 14.6376 12.4937 14.5813 12.6719C14.3719 13.35 14.0094 13.8531 13.4751 14.2156C13.2438 14.3719 13.0438 14.4625 12.7188 14.5656L12.4844 14.6406H8.00006H3.51568L3.19693 14.5375C2.32193 14.25 1.70943 13.6094 1.4188 12.6719C1.36255 12.4937 1.35942 12.2906 1.35942 8C1.35942 3.70937 1.36255 3.50625 1.4188 3.32812C1.64068 2.61562 2.02818 2.09687 2.6063 1.73437C2.85005 1.58125 3.2688 1.41875 3.52818 1.375C3.6063 1.3625 5.66255 1.35312 8.09381 1.35625L12.5157 1.35937L12.8032 1.45937Z" fill="white"/>
<path d="M12.125 2.7C11.9031 2.75 11.775 2.81875 11.625 2.97187C11.4219 3.18125 11.3594 3.34687 11.3594 3.67187C11.3594 3.91562 11.3719 3.975 11.4438 4.10937C11.6156 4.43437 11.9063 4.625 12.2688 4.65C12.5344 4.66562 12.675 4.62812 12.8969 4.47812C13.5188 4.05937 13.4469 3.10625 12.7719 2.78437C12.5406 2.675 12.3563 2.65 12.125 2.7Z" fill="white"/>
<path d="M7.48755 4.03437C5.97818 4.24375 4.69067 5.29375 4.22192 6.70625C4.06255 7.1875 4.0188 7.46562 4.0188 8C4.0188 8.53437 4.06255 8.8125 4.22192 9.29687C4.60005 10.4281 5.57505 11.4 6.71255 11.7812C7.18755 11.9375 7.4688 11.9812 8.00005 11.9812C8.5313 11.9812 8.81255 11.9375 9.28755 11.7812C10.4251 11.4 11.4001 10.4281 11.7782 9.29687C11.9376 8.8125 11.9813 8.53437 11.9813 8C11.9813 7.3 11.8469 6.72812 11.5438 6.15625C10.9657 5.07187 9.97193 4.325 8.76568 4.07812C8.46568 4.01562 7.78443 3.99062 7.48755 4.03437ZM8.80318 5.46562C9.13755 5.575 9.22818 5.61875 9.48443 5.79062C10.0094 6.14375 10.3626 6.63437 10.5657 7.28125C10.6282 7.48437 10.6407 7.58125 10.6407 8C10.6407 8.51562 10.6032 8.70625 10.4188 9.11562C10.1876 9.64062 9.64068 10.1875 9.11255 10.4219C8.7063 10.6031 8.51568 10.6406 8.00005 10.6406C7.48443 10.6406 7.2938 10.6031 6.88755 10.4219C6.35943 10.1875 5.81255 9.64062 5.5813 9.11562C5.39693 8.70625 5.35943 8.51562 5.35943 8C5.35943 7.58125 5.37193 7.48437 5.43443 7.28125C5.54068 6.94375 5.63443 6.74687 5.81255 6.4875C6.16568 5.975 6.65943 5.62187 7.26568 5.44375C7.57505 5.35312 7.62193 5.34687 8.0938 5.35937C8.46568 5.36875 8.55005 5.38125 8.80318 5.46562Z" fill="white"/>
</g>
<defs>
<clipPath id="clip0_422_183">
<rect width="16" height="16" fill="white"/>
</clipPath>
</defs>
</svg>
