<svg width="16" height="16" viewBox="0 0 16 16" fill="none" xmlns="http://www.w3.org/2000/svg">
<path d="M9.90628 2.85625C9.6594 2.9125 9.5094 2.96563 9.2969 3.07188C8.60003 3.41875 8.10315 4.03438 7.90315 4.79688C7.8344 5.06875 7.8094 5.58438 7.85315 5.85625L7.88128 6.00938L7.58753 5.99063C6.55003 5.92188 5.40628 5.55 4.43753 4.9625C3.90315 4.64063 3.51253 4.32813 2.98753 3.80625C2.42815 3.24688 2.47815 3.25938 2.33128 3.63125C2.08753 4.26563 2.06565 4.84063 2.2719 5.41875C2.43128 5.86875 2.76878 6.35938 3.1094 6.6375L3.28753 6.78125H3.18753C3.00628 6.78125 2.6094 6.68438 2.36878 6.57813L2.12503 6.475V6.63125C2.12503 7.18125 2.41565 7.84688 2.85628 8.30625C3.18128 8.64688 3.50003 8.85 3.95315 9L4.20315 9.08438L3.9344 9.125C3.77815 9.14688 3.53128 9.15938 3.3469 9.15C2.97503 9.13125 2.9844 9.10313 3.2094 9.53438C3.45315 10 3.85315 10.4031 4.31253 10.6375C4.6469 10.8094 4.8219 10.8656 5.16878 10.9156L5.4469 10.9563L5.32503 11.0531C5.2594 11.1063 5.1094 11.2063 4.99378 11.2781C4.08753 11.8281 3.07815 12.0938 2.01878 12.0563C1.55628 12.0375 1.55628 12.0406 2.01565 12.2875C3.58753 13.1313 5.2844 13.4031 7.0469 13.0906C9.71253 12.6188 11.8313 10.7188 12.7032 8.02813C12.9375 7.30313 13.0625 6.5375 13.0625 5.82813V5.4125L13.2438 5.27813C13.5782 5.025 14.1 4.46875 14.3282 4.11563L14.3844 4.03125L14.2375 4.09375C13.9188 4.22813 12.9938 4.47188 12.9532 4.43125C12.9469 4.425 13.0407 4.34375 13.1625 4.25C13.5094 3.98438 13.8407 3.53125 13.9844 3.12188L14.025 3.00625L13.6469 3.1875C13.2907 3.35938 12.8625 3.5125 12.525 3.59688L12.375 3.63125L12.2125 3.48438C11.8844 3.1875 11.4875 2.97813 11.0532 2.875C10.7563 2.80313 10.1875 2.79375 9.90628 2.85625Z" fill="#100906"/>
</svg>
